<svg width="18" height="18" viewBox="0 0 18 18" fill="none" xmlns="http://www.w3.org/2000/svg">
<path d="M16.8121 0.0449712L0.613432 5.44552C0.448964 5.50128 0.304046 5.60326 0.196031 5.73926C0.0880151 5.87526 0.0214785 6.03952 0.00438684 6.21237C-0.0127048 6.38522 0.0203729 6.55933 0.0996599 6.71386C0.178947 6.86839 0.301083 6.99679 0.451445 7.08369L6.30096 10.423V17.1017C6.30087 17.2948 6.36301 17.4828 6.47817 17.6377C6.59333 17.7927 6.75538 17.9064 6.94026 17.962C7.12515 18.0176 7.32302 18.0121 7.50452 17.9463C7.68602 17.8805 7.84148 17.7579 7.94783 17.5968L11.0796 12.8983L16.6501 16.0846C16.7875 16.1615 16.9426 16.2012 17.1 16.2C17.2574 16.1988 17.4118 16.1566 17.548 16.0776C17.6842 15.9986 17.7975 15.8855 17.8768 15.7494C17.956 15.6133 17.9985 15.459 18 15.3015V0.900058C17.999 0.757404 17.9644 0.616993 17.8989 0.490251C17.8335 0.363509 17.739 0.254017 17.6232 0.170684C17.5075 0.0873517 17.3737 0.0325325 17.2327 0.0106876C17.0918 -0.0111573 16.9477 0.000589197 16.8121 0.0449712ZM9.99966 11.2871L8.10081 14.1314V10.36L11.4035 8.00178L9.99966 11.2871Z" fill="white"/>
</svg>
